<svg width="32" height="32" viewBox="0 0 32 32" fill="none" xmlns="http://www.w3.org/2000/svg">
<path d="M16 24V16M19 24V22.5C19 20.6875 20.9713 18.9732 22.25 17.75C24.0525 16.0269 25 13.7119 25 11C25 6.00004 21.0169 2.00003 16 2.00003C14.8172 1.99674 13.6454 2.22728 12.552 2.6784C11.4586 3.12952 10.4651 3.79233 9.62872 4.62872C8.79233 5.4651 8.12952 6.45856 7.6784 7.55198C7.22728 8.6454 6.99674 9.81721 7.00003 11C7.00003 13.615 7.98816 16.0869 9.75004 17.75C11.0219 18.9507 13 20.6688 13 22.5V24H19ZM14 30H18H14ZM13 27H19H13Z" stroke="#FEFAFA" stroke-linecap="round" stroke-linejoin="round"/>
<path d="M18.375 15C18.375 15 17.0306 16 16 16C14.9694 16 13.625 15 13.625 15" stroke="#FEFAFA" stroke-linecap="round" stroke-linejoin="round"/>
</svg>
