<svg width="32" height="32" viewBox="0 0 32 32" fill="none" xmlns="http://www.w3.org/2000/svg">
<path d="M26.9378 20.0375C26.8753 19.8125 27.0128 19.5 27.144 19.275C27.1842 19.208 27.228 19.1433 27.2753 19.0812C28.398 17.413 28.9985 15.4483 29.0003 13.4375C29.019 7.675 24.1565 3 18.144 3C12.9003 3 8.52529 6.56875 7.50029 11.3062C7.34695 12.0084 7.26943 12.725 7.26904 13.4438C7.26904 19.2125 11.944 24.0125 17.9565 24.0125C18.9128 24.0125 20.2003 23.725 20.9065 23.5312C21.6128 23.3375 22.3128 23.0813 22.494 23.0125C22.6798 22.9425 22.8767 22.9065 23.0753 22.9062C23.2919 22.9054 23.5066 22.9479 23.7065 23.0312L27.2503 24.2875C27.328 24.3204 27.4101 24.3414 27.494 24.35C27.6266 24.35 27.7538 24.2973 27.8476 24.2036C27.9414 24.1098 27.994 23.9826 27.994 23.85C27.9897 23.7928 27.9792 23.7362 27.9628 23.6812L26.9378 20.0375Z" stroke="#FEFAFA" strokeWidth="0.75" strokeMiterlimit="10" strokeLinecap="round"/>
<path d="M4.15379 14.5C3.33406 15.9727 2.93751 17.6433 3.008 19.3273C3.07848 21.0112 3.61324 22.6429 4.55316 24.0419C4.69754 24.26 4.77879 24.4288 4.75379 24.5419C4.72879 24.655 4.00816 28.4088 4.00816 28.4088C3.99083 28.4966 3.9974 28.5875 4.0272 28.6719C4.05699 28.7564 4.10891 28.8312 4.17754 28.8888C4.2691 28.9617 4.38296 29.001 4.50004 29C4.5626 29.0002 4.62452 28.9874 4.68191 28.9625L8.19504 27.5875C8.43683 27.4922 8.70656 27.4967 8.94504 27.6C10.1288 28.0613 11.4375 28.35 12.7469 28.35C14.504 28.3519 16.2302 27.8884 17.75 27.0069" stroke="#FEFAFA" strokeWidth="0.75" strokeMiterlimit="10" strokeLinecap="round"/>
</svg>
