<svg width="32" height="32" viewBox="0 0 32 32" fill="none" xmlns="http://www.w3.org/2000/svg">
<path d="M27.2917 11.506C26.9736 11.8221 26.5433 11.9995 26.0948 11.9995C25.6463 11.9995 25.2161 11.8221 24.8979 11.506L23.4929 10.1004C23.1767 9.78243 22.9992 9.35225 22.9992 8.90383C22.9992 8.45541 23.1767 8.02522 23.4929 7.70726L26.6736 4.52664C26.6797 4.52052 26.6842 4.51301 26.6868 4.50475C26.6893 4.49648 26.6898 4.48772 26.6882 4.47922C26.6866 4.47072 26.683 4.46274 26.6776 4.45597C26.6722 4.44921 26.6652 4.44386 26.6573 4.44039C24.6048 3.56164 21.9429 4.00851 20.2529 5.68664C18.6354 7.29226 18.5436 9.70351 19.1361 11.8116C19.2203 12.1111 19.2201 12.428 19.1355 12.7273C19.0509 13.0267 18.8852 13.2968 18.6567 13.5079L7.8442 23.5554C7.58612 23.7865 7.37789 24.0678 7.23223 24.3821C7.08658 24.6964 7.00655 25.0371 6.99705 25.3834C6.98755 25.7297 7.04878 26.0742 7.17699 26.3961C7.3052 26.7179 7.49769 27.0102 7.74271 27.2551C7.98773 27.4999 8.28011 27.6923 8.602 27.8203C8.92388 27.9484 9.2685 28.0094 9.61478 27.9997C9.96106 27.9901 10.3017 27.9099 10.616 27.764C10.9302 27.6182 11.2114 27.4098 11.4423 27.1516L21.5767 16.3204C21.7855 16.0957 22.0516 15.9321 22.3464 15.8473C22.6412 15.7625 22.9535 15.7597 23.2498 15.8391C25.3411 16.3979 27.7179 16.2929 29.3167 14.7179C31.0348 13.0254 31.4054 10.0341 30.5729 8.32226C30.5692 8.31475 30.5637 8.30824 30.5569 8.30327C30.5501 8.2983 30.5423 8.29501 30.534 8.29367C30.5257 8.29233 30.5172 8.29297 30.5092 8.29555C30.5012 8.29813 30.4939 8.30258 30.4879 8.30851L27.2917 11.506Z" stroke="#FEFAFA" strokeWidth="0.75" strokeMiterlimit="10" strokeLinecap="round"/>
<path d="M19.817 18.2063C22.3764 20.5876 25.4807 23.4107 26.692 24.4194C26.7826 24.4941 26.8565 24.5869 26.9091 24.6919C26.9617 24.7969 26.9917 24.9117 26.9972 25.0289C27.0027 25.1462 26.9837 25.2633 26.9412 25.3728C26.8988 25.4822 26.8339 25.5816 26.7507 25.6644L24.6645 27.7501C24.5796 27.833 24.4787 27.8979 24.3679 27.9406C24.2572 27.9833 24.1389 28.0031 24.0202 27.9986C23.9016 27.9942 23.7851 27.9656 23.6779 27.9147C23.5706 27.8638 23.4748 27.7917 23.3964 27.7026C22.3632 26.5038 19.5782 23.5082 17.192 21.0151M14.0001 17.7501C12.9076 16.6876 12.407 16.1932 12.0626 15.8569C11.8903 15.6857 11.7771 15.4639 11.7397 15.2239C11.7023 14.9839 11.7425 14.7381 11.8545 14.5226C11.9135 14.4166 11.9872 14.3194 12.0732 14.2338L13.0532 13.2782C13.1546 13.1766 13.2739 13.0946 13.4051 13.0363C13.6122 12.9447 13.842 12.9172 14.0648 12.9576C14.2877 12.9979 14.4933 13.1041 14.6551 13.2626C14.9957 13.5932 15.6195 14.2001 16.7432 15.2951L14.0001 17.7501Z" stroke="#FEFAFA" strokeWidth="0.75" strokeLinecap="round" strokeLinejoin="round"/>
<path d="M1.08381 12.0938L2.92194 10.2975C2.95001 10.2699 2.98334 10.2482 3.01995 10.2337C3.05656 10.2192 3.0957 10.2122 3.13506 10.2131C3.21441 10.2123 3.29093 10.2426 3.34819 10.2975V10.2975C3.41475 10.3634 3.49544 10.4132 3.58414 10.4432C3.67283 10.4732 3.76719 10.4826 3.86006 10.4706C4.09944 10.4444 4.35506 10.3706 4.52069 10.2131C4.89569 9.85063 4.46194 9.13625 4.79194 8.67938C5.16927 8.17923 5.58244 7.70716 6.02819 7.26688C6.40319 6.89938 7.89319 5.49688 10.3969 4.48875C11.1976 4.16511 12.0533 3.99915 12.9169 4C14.3288 4 15.4169 4.625 15.8082 4.97938C16.043 5.20281 16.258 5.44623 16.4507 5.70688C16.2625 5.63752 16.0703 5.57971 15.8751 5.53375C15.4645 5.44665 15.0433 5.42012 14.6251 5.455C13.7919 5.52313 12.7869 5.90875 12.2501 6.33C11.3813 7.0175 11.0082 7.9375 10.9494 9.12438C10.9069 10.0069 11.1194 10.5056 13.2057 12.5925C13.277 12.6721 13.3146 12.7763 13.3107 12.883C13.3067 12.9898 13.2614 13.0909 13.1844 13.165L12.0457 14.29C11.9663 14.3678 11.8599 14.4119 11.7487 14.413C11.6375 14.414 11.5303 14.372 11.4494 14.2956C10.0782 12.9244 9.15881 12.2275 8.63694 11.9106C8.11506 11.5938 7.69506 11.5044 7.49319 11.4825C7.09671 11.4432 6.6978 11.5277 6.35131 11.7244C6.29051 11.7578 6.23493 11.7999 6.18631 11.8494C6.10516 11.9333 6.04143 12.0324 5.99879 12.141C5.95616 12.2497 5.93546 12.3657 5.9379 12.4823C5.94035 12.599 5.96587 12.7141 6.01301 12.8208C6.06015 12.9276 6.12798 13.024 6.21256 13.1044L6.31944 13.2044C6.34718 13.2313 6.36923 13.2636 6.38429 13.2992C6.39935 13.3349 6.40711 13.3732 6.40711 13.4119C6.40711 13.4506 6.39935 13.4889 6.38429 13.5245C6.36923 13.5602 6.34718 13.5924 6.31944 13.6194L4.48319 15.4125C4.45537 15.4407 4.42216 15.4629 4.38554 15.478C4.34892 15.493 4.30964 15.5005 4.27006 15.5C4.19073 15.5008 4.11423 15.4705 4.05694 15.4156L1.08381 12.5138C1.03 12.4571 1 12.3819 1 12.3038C1 12.2256 1.03 12.1504 1.08381 12.0938V12.0938Z" stroke="#FEFAFA" stroke-width="0.75" strokeLinecap="round" strokeLinejoin="round"/>
</svg>
