<svg width="19" height="17" viewBox="0 0 19 17" fill="none" xmlns="http://www.w3.org/2000/svg">
<path d="M16.0781 0.59375H2.29688C1.68791 0.594463 1.10407 0.859731 0.673459 1.33135C0.242852 1.80296 0.000651421 2.44241 0 3.10938V13.8906C0.000651421 14.5576 0.242852 15.197 0.673459 15.6687C1.10407 16.1403 1.68791 16.4055 2.29688 16.4062H16.0781C16.6871 16.4055 17.2709 16.1403 17.7015 15.6687C18.1321 15.197 18.3743 14.5576 18.375 13.8906V3.10938C18.3743 2.44241 18.1321 1.80296 17.7015 1.33135C17.2709 0.859731 16.6871 0.594463 16.0781 0.59375ZM15.4965 4.75486L9.59027 9.78611C9.4751 9.88417 9.33338 9.93741 9.1875 9.93741C9.04162 9.93741 8.8999 9.88417 8.78473 9.78611L2.87848 4.75486C2.80908 4.69747 2.7508 4.62554 2.707 4.54326C2.66321 4.46098 2.63479 4.36999 2.62338 4.27557C2.61197 4.18116 2.61781 4.0852 2.64056 3.99328C2.66331 3.90136 2.70251 3.8153 2.75588 3.74011C2.80926 3.66493 2.87574 3.60211 2.95148 3.55531C3.02721 3.50851 3.11068 3.47866 3.19704 3.4675C3.2834 3.45633 3.37092 3.46408 3.45452 3.49028C3.53812 3.51649 3.61613 3.56063 3.68402 3.62014L9.1875 8.30818L14.691 3.62014C14.8286 3.50631 15.0016 3.45639 15.1725 3.48117C15.3435 3.50594 15.4987 3.60343 15.6045 3.75253C15.7104 3.90164 15.7584 4.09038 15.7382 4.27796C15.718 4.46553 15.6312 4.63684 15.4965 4.75486Z" fill="#FEFAFA"/>
</svg>
