<svg width="299" height="56" viewBox="0 0 954 253" fill="none" xmlns="http://www.w3.org/2000/svg">
<path d="M149.993 118.859C149.993 118.859 156.959 115.541 158.17 114.938C159.206 114.422 161.541 114.066 162.195 113.974C163.678 113.64 165.326 113.286 166.559 113.024C167.327 112.841 168.025 112.664 168.468 112.525C173.95 110.813 185.126 101.668 186.943 101.065C188.55 100.531 191.184 100.16 191.184 100.16C191.184 100.16 196.635 98.6518 197.847 98.0486C199.058 97.4454 202.831 94.9237 206.024 92.9214C206.024 92.9214 210.349 90.2702 210.567 90.207C210.785 90.1439 213.596 89.9054 213.596 89.9054C213.596 89.9054 219.448 89.5388 219.654 89.6038C219.869 89.672 222.077 90.8102 222.077 90.8102L224.197 91.4134L226.923 92.9214L229.346 94.1278H230.86L232.374 92.6198L233.586 92.3182L241.461 85.3815L243.278 84.1751L246.609 80.8575L249.638 78.1431L252.667 75.7304L255.09 72.7144L255.696 71.8096C255.696 71.8096 256.907 70.6032 257.513 70.3016C257.813 70.1521 260.844 70 260.844 70L263.57 70.3016L265.69 71.508C265.69 71.508 266.383 72.1296 266.902 72.4128C267.107 72.5245 271.578 72.2817 272.051 72.4128C272.411 72.5128 272.959 72.7144 272.959 72.7144L274.171 73.3176L281.743 79.9527L295.069 90.207L305.67 99.8582C305.67 99.8582 313.5 109.195 314.453 109.208C315.407 109.22 316.876 108.906 316.876 108.906C316.876 108.906 318.179 109.028 318.996 109.208C319.813 109.387 327.174 114.335 327.174 114.335C327.174 114.335 328.766 114.167 328.991 114.335C329.125 114.435 329.294 114.636 329.294 114.636L331.414 115.24L333.534 115.843H335.351C335.654 115.843 336.866 116.748 336.866 116.748L338.077 117.351C338.077 117.351 338.861 117.928 338.986 117.954C339.217 118.003 339.442 117.88 339.592 117.954C339.741 118.029 339.894 118.256 339.894 118.256L340.5 118.859L349.284 125.192C349.284 125.192 350.641 125.106 350.798 125.192C351.09 125.354 351.404 125.796 351.404 125.796H356.553L359.278 126.7L361.701 127.907L364.427 128.208L367.759 129.415L371.999 130.621V130.811C371.999 130.811 371.999 170.845 333.534 206.5C303.499 234.341 257.569 239 257.569 239C257.569 239 203.499 239 173.999 206.5C132.499 160.78 136.283 130 136.283 130L136.284 128.916L139.711 126.264L143.329 123.043L149.993 118.859Z" fill="#FEFAFA"/>
<path d="M136.283 130L136.284 128.916L139.711 126.264L143.329 123.043L149.993 118.859C149.993 118.859 156.959 115.541 158.17 114.938C159.382 114.335 162.369 113.95 162.369 113.95C162.369 113.95 166.938 113.003 168.468 112.525C173.95 110.813 185.126 101.668 186.943 101.065C188.55 100.531 191.184 100.16 191.184 100.16C191.184 100.16 196.635 98.6518 197.847 98.0486C199.058 97.4454 202.831 94.9237 206.024 92.9214C206.024 92.9214 210.349 90.2702 210.567 90.207C210.785 90.1439 213.596 89.9054 213.596 89.9054C213.596 89.9054 219.448 89.5388 219.654 89.6038C219.869 89.672 222.077 90.8102 222.077 90.8102L224.197 91.4134L226.923 92.9214L229.346 94.1278H230.86L232.374 92.6198L233.586 92.3182L241.461 85.3815L243.278 84.1751L246.609 80.8575L249.638 78.1431L252.667 75.7304L255.09 72.7144L255.696 71.8096C255.696 71.8096 256.907 70.6032 257.513 70.3016C257.813 70.1521 260.844 70 260.844 70L263.57 70.3016L265.69 71.508C265.69 71.508 266.383 72.1296 266.902 72.4128C267.107 72.5245 271.578 72.2817 272.051 72.4128C272.411 72.5128 272.959 72.7144 272.959 72.7144L274.171 73.3176L281.743 79.9527L295.069 90.207L305.67 99.8582C305.67 99.8582 313.5 109.195 314.453 109.208C315.407 109.22 316.876 108.906 316.876 108.906C316.876 108.906 318.179 109.028 318.996 109.208C319.813 109.387 327.174 114.335 327.174 114.335C327.174 114.335 328.766 114.167 328.991 114.335C329.125 114.435 329.294 114.636 329.294 114.636L331.414 115.24L333.534 115.843C333.534 115.843 335.048 115.843 335.351 115.843C335.654 115.843 336.866 116.748 336.866 116.748L338.077 117.351C338.077 117.351 338.861 117.928 338.986 117.954C339.217 118.003 339.442 117.88 339.592 117.954C339.741 118.029 339.894 118.256 339.894 118.256L340.5 118.859L349.284 125.192C349.284 125.192 350.641 125.106 350.798 125.192C351.09 125.354 351.404 125.796 351.404 125.796H356.553L359.278 126.7L361.701 127.907L364.427 128.208L367.759 129.415L371.999 130.621V130.811M136.283 130L136.474 128.916L139.711 126.453L141.615 124.748L143.329 123.233L149.993 119.065L158.18 115.087C158.18 115.087 157.799 115.276 158.561 114.898C159.322 114.519 168.461 112.624 168.461 112.624C172.841 111.488 185.788 101.627 186.943 101.258C188.099 100.889 191.184 100.311 191.184 100.311L197.973 98.2267L205.97 93.1118L210.567 90.4596L213.596 90.207C213.596 90.207 219.298 89.9054 219.654 89.9054C219.891 89.9054 222.077 91.028 222.077 91.028L224.058 91.5963L226.914 93.1118C226.914 93.1118 229.025 94.342 229.346 94.342C229.77 94.342 230.341 94.342 230.86 94.342C231.116 94.342 232.374 92.9214 232.374 92.9214L233.586 92.6198L233.769 92.5435L241.765 85.3815L243.278 84.3975L243.479 84.1751L246.716 80.9876L249.638 78.3354L252.667 75.8727L255.093 72.8416L255.665 72.0839L255.942 71.8096C255.942 71.8096 257.16 70.7578 257.569 70.5683C257.798 70.4621 260.844 70.3016 260.844 70.3016C260.844 70.3016 263.184 70.4766 263.471 70.5683C263.815 70.6781 265.69 71.8096 265.69 71.8096C265.69 71.8096 266.387 72.3881 266.898 72.6522C267.159 72.7866 272.039 72.6522 272.039 72.6522L272.801 72.8416L274.171 73.5994L281.743 80.2298L295.069 90.6491L305.67 100.311C305.67 100.311 313.837 109.593 314.453 109.593C315.069 109.593 315.918 109.211 316.876 109.208C317.711 109.205 318.116 109.208 318.996 109.489C319.876 109.77 326.902 114.636 327.174 114.636C327.445 114.636 328.912 114.544 328.991 114.636C329.069 114.729 329.073 114.812 329.159 114.898C329.349 115.087 331.253 115.466 331.253 115.466L333.538 116.034H335.351L336.866 117.083L338.986 118.256H339.532L340.5 119.255L349.284 125.506C349.284 125.506 350.568 125.342 350.798 125.506C351.028 125.671 351.245 126.075 351.245 126.075H356.386H356.553L359.242 127.022L361.701 128.208L364.427 128.537L367.759 129.741L371.999 130.811M136.283 130C136.283 130 132.499 160.78 173.999 206.5C203.499 239 257.569 239 257.569 239C257.569 239 303.499 234.341 333.534 206.5C371.999 170.845 371.999 130.811 371.999 130.811" stroke="#FEFAFA" stroke-width="2"/>
<circle cx="254" cy="120" r="118" stroke="#FEFAFA" stroke-width="4"/>
<line x1="63" y1="128" x2="135" y2="128" stroke="#FEFAFA" stroke-width="4"/>
<line x1="373" y1="128" x2="445" y2="128" stroke="#FEFAFA" stroke-width="4"/>
<circle cx="32" cy="130" r="30" stroke="#FEFAFA" stroke-width="4"/>
<path d="M456.421 175.727H445C445.092 172.899 445.162 166.678 445.208 157.063C445.3 147.448 445.346 135.876 445.346 122.349C445.346 116.835 445.3 110.448 445.208 103.19C445.162 95.931 445.092 88.5547 445 81.0605H456.421C456.329 88.2719 456.259 96.4259 456.213 105.523C456.167 114.619 456.144 122.467 456.144 129.066C456.144 142.64 456.167 153.104 456.213 160.456C456.306 167.809 456.375 172.899 456.421 175.727ZM516.433 169.223L508.473 177C497.444 166.065 486.808 155.861 476.563 146.387C466.319 136.913 460.459 131.493 458.982 130.126V129.843C461.843 126.921 467.957 120.487 477.325 110.542C486.739 100.597 496.129 90.4164 505.497 80L513.318 87.1407C505.381 94.9176 497.237 103.213 488.884 112.027C480.532 120.794 475.271 126.308 473.103 128.571V128.712C474.164 129.749 478.709 134.062 486.739 141.65C494.814 149.191 504.712 158.382 516.433 169.223Z" fill="#FEFAFA"/>
<path d="M545.281 175.727H533.86C533.906 172.899 533.975 167.856 534.067 160.598C534.159 153.339 534.206 142.923 534.206 129.348C534.206 123.975 534.183 116.929 534.136 108.209C534.09 99.4896 533.998 90.44 533.86 81.0605H545.281C545.188 87.8005 545.096 95.6482 545.004 104.603C544.958 113.512 544.934 120.794 544.934 126.45C544.934 140.778 544.981 151.878 545.073 159.749C545.165 167.573 545.234 172.899 545.281 175.727Z" fill="#FEFAFA"/>
<path d="M656.774 81.0605C656.682 88.4604 656.59 96.9208 656.498 106.442C656.451 115.963 656.428 122.82 656.428 127.015C656.428 140.401 656.474 151.053 656.567 158.972C656.659 166.843 656.705 171.038 656.705 171.556L647.499 176.152C633.563 156.921 620.527 139.576 608.391 124.117C596.301 108.61 589.31 99.6545 587.418 97.2507L587.279 97.3214C587.279 109.953 587.349 125.483 587.487 143.913C587.672 162.294 587.787 172.899 587.833 175.727H577.035C577.081 174.549 577.15 170.354 577.243 163.143C577.335 155.931 577.381 145.892 577.381 133.025C577.381 127.887 577.358 121.077 577.312 112.593C577.266 104.061 577.174 95.0355 577.035 85.5146L587.556 80.4242C588.387 81.5083 595.447 90.6757 608.737 107.926C622.073 125.177 634.625 141.202 646.392 156.002L646.53 155.931C646.53 148.673 646.438 136.465 646.253 119.309C646.069 102.105 645.976 89.3559 645.976 81.0605H656.774Z" fill="#FEFAFA"/>
<path d="M739.226 175.586C738.811 175.586 735.742 175.562 730.02 175.515C724.298 175.468 717.215 175.445 708.77 175.445C702.909 175.445 697.534 175.468 692.642 175.515C687.797 175.562 683.69 175.586 680.321 175.586C680.414 172.852 680.483 166.937 680.529 157.84C680.621 148.744 680.667 139.341 680.667 129.631C680.667 124.305 680.644 117.259 680.598 108.492C680.552 99.7252 680.46 90.6521 680.321 81.2726C683.598 81.2726 687.681 81.2962 692.573 81.3433C697.51 81.3904 702.586 81.414 707.801 81.414C716.615 81.414 723.79 81.3904 729.328 81.3433C734.865 81.2962 737.865 81.2726 738.326 81.2726V91.0999C737.865 91.0999 734.957 91.0763 729.605 91.0292C724.298 90.9349 717.676 90.8878 709.739 90.8878C706.278 90.8878 702.886 90.9113 699.564 90.9585C696.241 90.9585 693.611 90.9585 691.673 90.9585C691.673 96.2845 691.627 101.611 691.535 106.937C691.442 112.215 691.396 117.212 691.396 121.925C693.473 121.925 695.918 121.948 698.733 121.996C701.594 121.996 704.132 121.996 706.347 121.996C714.469 121.996 721.714 121.972 728.082 121.925C734.496 121.831 737.911 121.784 738.326 121.784V131.54C737.957 131.54 734.15 131.517 726.905 131.469C719.66 131.375 713.038 131.328 707.039 131.328C704.824 131.328 702.171 131.352 699.079 131.399C696.034 131.399 693.473 131.399 691.396 131.399C691.396 140.307 691.419 147.377 691.465 152.609C691.512 157.84 691.558 162.224 691.604 165.759C694.326 165.806 697.626 165.853 701.502 165.9C705.378 165.9 709.554 165.9 714.031 165.9C720.906 165.9 726.674 165.877 731.335 165.829C736.042 165.782 738.672 165.759 739.226 165.759V175.586Z" fill="#FEFAFA"/>
<path d="M833.109 91.0999C832.371 91.0999 829.279 91.0763 823.834 91.0292C818.389 90.982 810.152 90.9585 799.123 90.9585C799.031 100.621 798.961 107.95 798.915 112.946C798.869 117.942 798.846 124.753 798.846 133.378C798.846 141.674 798.869 150.111 798.915 158.689C799.008 167.22 799.077 172.899 799.123 175.727H787.702C787.794 172.899 787.863 167.126 787.91 158.406C788.002 149.686 788.048 141.155 788.048 132.813C788.048 124.612 788.048 118.107 788.048 113.3C788.048 108.445 787.979 100.998 787.84 90.9585C778.011 90.9113 770.028 90.9349 763.891 91.0292C757.8 91.0763 754.454 91.0999 753.854 91.0999V81.2726C758.607 81.2726 764.375 81.2962 771.159 81.3433C777.988 81.3904 785.256 81.414 792.963 81.414C804.13 81.414 813.451 81.3904 820.927 81.3433C828.448 81.2962 832.509 81.2726 833.109 81.2726V91.0999Z" fill="#FEFAFA"/>
<path d="M860.849 175.727H849.428C849.474 172.899 849.543 167.856 849.636 160.598C849.728 153.339 849.774 142.923 849.774 129.348C849.774 123.975 849.751 116.929 849.705 108.209C849.659 99.4896 849.566 90.44 849.428 81.0605H860.849C860.757 87.8005 860.664 95.6482 860.572 104.603C860.526 113.512 860.503 120.794 860.503 126.45C860.503 140.778 860.549 151.878 860.641 159.749C860.734 167.573 860.803 172.899 860.849 175.727Z" fill="#FEFAFA"/>
<path d="M954 167.031C953.954 167.456 953.815 168.657 953.585 170.637C953.4 172.569 953.216 174.69 953.031 177C952.662 177 952.246 177 951.785 177C951.37 177 950.977 177 950.608 177C939.349 177 929.335 175.562 920.568 172.687C911.8 169.765 904.601 165.547 898.972 160.032C895.049 156.214 891.934 151.642 889.627 146.316C887.366 140.99 886.235 134.91 886.235 128.076C886.235 121.948 887.366 116.363 889.627 111.32C891.888 106.23 894.842 101.799 898.487 98.0284C903.794 92.561 910.923 88.2247 919.875 85.0197C928.828 81.8146 938.403 80.2121 948.601 80.2121C949.109 80.2121 949.685 80.2121 950.331 80.2121C950.977 80.2121 951.439 80.2121 951.716 80.2121C951.762 81.0605 951.854 82.4274 951.993 84.3127C952.131 86.1509 952.293 88.154 952.477 90.3222C952.016 90.3222 951.624 90.3222 951.3 90.3222C950.977 90.3222 950.585 90.3222 950.124 90.3222C944.356 90.3222 938.38 90.982 932.196 92.3017C926.013 93.5743 920.683 95.5068 916.207 98.0991C910.393 101.493 905.916 105.853 902.779 111.179C899.641 116.457 898.072 122.161 898.072 128.288C898.072 134.651 899.479 140.448 902.294 145.68C905.109 150.865 909.562 155.224 915.653 158.759C920.637 161.682 926.197 163.803 932.335 165.122C938.518 166.442 944.656 167.102 950.747 167.102C951.024 167.102 951.462 167.102 952.062 167.102C952.662 167.102 953.308 167.078 954 167.031Z" fill="#FEFAFA"/>
<path d="M451.984 238.789H447C447.021 238.539 447.042 235.499 447.063 229.668C447.105 223.817 447.126 218.966 447.126 215.113C447.126 212.636 447.116 209.512 447.095 205.743C447.095 201.954 447.063 197.706 447 193H451.984C451.942 196.207 451.911 199.923 451.889 204.15C451.868 208.357 451.858 211.907 451.858 214.801C451.858 221.11 451.879 226.628 451.921 231.355C451.963 236.082 451.984 238.56 451.984 238.789Z" fill="#FEFAFA"/>
<path d="M470.784 201.121H465.232V195.749H470.784V201.121ZM470.5 238.789H465.516C465.537 238.455 465.558 236.404 465.579 232.636C465.621 228.867 465.642 225.754 465.642 223.297C465.642 221.152 465.631 218.799 465.61 216.238C465.61 213.656 465.579 210.637 465.516 207.18H470.5C470.458 210.179 470.416 212.99 470.374 215.613C470.353 218.216 470.342 220.538 470.342 222.578C470.342 227.43 470.363 231.324 470.405 234.26C470.468 237.196 470.5 238.705 470.5 238.789Z" fill="#FEFAFA"/>
<path d="M507.817 206.899C507.817 207.357 507.795 209.419 507.753 213.083C507.732 216.748 507.722 220.236 507.722 223.547C507.722 225.795 507.732 228.086 507.753 230.418C507.774 232.75 507.785 234.884 507.785 236.821C507.785 240.382 507.165 243.172 505.924 245.192C504.704 247.211 502.959 248.825 500.687 250.033C498.9 250.949 496.723 251.667 494.157 252.188C491.592 252.729 488.479 253 484.82 253L484.315 249.033C486.776 248.992 488.984 248.856 490.94 248.627C492.896 248.419 494.673 248.023 496.271 247.44C498.732 246.524 500.445 245.306 501.413 243.786C502.38 242.287 502.885 240.454 502.927 238.289C502.675 238.289 502.422 238.289 502.17 238.289C501.918 238.289 501.665 238.289 501.413 238.289C498.91 238.289 496.334 237.997 493.684 237.414C491.035 236.811 488.774 235.863 486.902 234.572C485.051 233.344 483.548 231.74 482.391 229.762C481.234 227.784 480.656 225.337 480.656 222.422C480.656 219.507 481.466 216.935 483.085 214.707C484.704 212.479 486.871 210.71 489.583 209.398C491.518 208.461 493.621 207.815 495.892 207.461C498.185 207.086 500.95 206.899 504.189 206.899C504.778 206.899 505.356 206.899 505.924 206.899C506.513 206.899 507.144 206.899 507.817 206.899ZM502.99 223.515C502.99 222.016 502.98 220.142 502.959 217.893C502.959 215.644 502.938 213.302 502.895 210.866C502.769 210.866 502.633 210.866 502.485 210.866C502.338 210.866 502.201 210.866 502.075 210.866C500.12 210.866 498.406 210.991 496.933 211.24C495.482 211.49 493.947 211.959 492.328 212.646C490.183 213.562 488.542 214.905 487.407 216.675C486.271 218.445 485.703 220.444 485.703 222.672C485.703 224.963 486.261 226.92 487.375 228.544C488.511 230.168 490.025 231.428 491.918 232.323C493.201 232.927 494.683 233.416 496.366 233.791C498.069 234.166 499.867 234.353 501.76 234.353C501.991 234.353 502.201 234.353 502.391 234.353C502.58 234.353 502.759 234.353 502.927 234.353C502.927 234.104 502.938 232.948 502.959 230.887C502.98 228.804 502.99 226.347 502.99 223.515Z" fill="#FEFAFA"/>
<path d="M546.742 238.789H541.758C541.779 238.164 541.8 236.29 541.821 233.167C541.863 230.022 541.884 227.951 541.884 226.951C541.884 225.868 541.874 224.275 541.852 222.172C541.852 220.048 541.842 218.497 541.821 217.518C541.758 215.124 541.295 213.406 540.433 212.365C539.571 211.324 538.078 210.803 535.954 210.803C534.755 210.803 533.22 211.168 531.348 211.896C529.476 212.604 527.499 213.573 525.417 214.801L525.544 238.789H520.56C520.581 237.977 520.602 234.707 520.623 228.981C520.665 223.234 520.686 218.508 520.686 214.801C520.686 212.386 520.675 209.346 520.654 205.681C520.654 201.995 520.623 197.768 520.56 193H525.544L525.417 210.772L525.449 210.803C528.456 209.137 530.917 207.982 532.831 207.336C534.744 206.691 536.385 206.368 537.752 206.368C540.443 206.368 542.599 207.211 544.218 208.898C545.859 210.564 546.679 212.854 546.679 215.769C546.679 218.393 546.658 220.663 546.616 222.578C546.595 224.473 546.584 226.014 546.584 227.201C546.584 229.096 546.605 231.272 546.647 233.729C546.689 236.186 546.721 237.872 546.742 238.789Z" fill="#FEFAFA"/>
<path d="M576.74 234.916L576.172 238.882C576.025 238.903 575.657 238.924 575.068 238.945C574.5 238.966 574.006 238.976 573.586 238.976C569.274 238.976 566.015 238.091 563.807 236.321C561.598 234.53 560.494 231.792 560.494 228.107C560.494 225.795 560.505 223.318 560.526 220.673C560.568 218.029 560.589 214.749 560.589 210.834H555.289V207.18H560.873V199.778H565.447V207.18H576.74V210.834H565.447C565.447 211.272 565.426 212.573 565.384 214.739C565.363 216.904 565.352 218.508 565.352 219.549C565.352 220.423 565.352 221.496 565.352 222.766C565.352 224.036 565.352 225.546 565.352 227.295C565.352 230.002 566.088 231.959 567.561 233.167C569.033 234.353 571.304 234.947 574.374 234.947C574.753 234.947 575.205 234.947 575.731 234.947C576.256 234.926 576.593 234.916 576.74 234.916Z" fill="#FEFAFA"/>
<path d="M591.66 201.121H586.108V195.749H591.66V201.121ZM591.376 238.789H586.392C586.413 238.455 586.434 236.404 586.455 232.636C586.497 228.867 586.518 225.754 586.518 223.297C586.518 221.152 586.507 218.799 586.486 216.238C586.486 213.656 586.455 210.637 586.392 207.18H591.376C591.334 210.179 591.292 212.99 591.25 215.613C591.229 218.216 591.218 220.538 591.218 222.578C591.218 227.43 591.239 231.324 591.281 234.26C591.344 237.196 591.376 238.705 591.376 238.789Z" fill="#FEFAFA"/>
<path d="M630.743 238.789H625.759C625.78 238.206 625.801 236.28 625.822 233.01C625.864 229.741 625.885 227.722 625.885 226.951C625.885 225.868 625.874 224.275 625.853 222.172C625.853 220.048 625.843 218.497 625.822 217.518C625.759 215.124 625.296 213.406 624.434 212.365C623.572 211.324 622.079 210.803 619.954 210.803C618.672 210.803 617.084 211.178 615.191 211.928C613.298 212.677 611.385 213.635 609.45 214.801C609.45 215.03 609.439 216.269 609.418 218.518C609.397 220.767 609.387 222.818 609.387 224.671C609.387 227.086 609.408 230.002 609.45 233.416C609.513 236.831 609.545 238.622 609.545 238.789H604.56C604.56 238.643 604.581 237.373 604.624 234.978C604.666 232.563 604.687 228.981 604.687 224.234C604.687 222.047 604.676 219.486 604.655 216.55C604.655 213.614 604.624 210.491 604.56 207.18H609.482L609.45 210.772L609.482 210.834C612.426 209.169 614.876 208.013 616.832 207.368C618.808 206.701 620.449 206.368 621.753 206.368C624.444 206.368 626.6 207.211 628.219 208.898C629.86 210.564 630.68 212.854 630.68 215.769C630.68 218.393 630.659 220.663 630.617 222.578C630.596 224.473 630.585 226.014 630.585 227.201C630.585 229.096 630.606 231.47 630.648 234.322C630.711 237.154 630.743 238.643 630.743 238.789Z" fill="#FEFAFA"/>
<path d="M667.523 206.899C667.523 207.357 667.502 209.419 667.46 213.083C667.439 216.748 667.429 220.236 667.429 223.547C667.429 225.795 667.439 228.086 667.46 230.418C667.481 232.75 667.492 234.884 667.492 236.821C667.492 240.382 666.871 243.172 665.631 245.192C664.411 247.211 662.665 248.825 660.394 250.033C658.607 250.949 656.43 251.667 653.864 252.188C651.299 252.729 648.186 253 644.527 253L644.022 249.033C646.483 248.992 648.691 248.856 650.647 248.627C652.602 248.419 654.38 248.023 655.978 247.44C658.438 246.524 660.152 245.306 661.12 243.786C662.087 242.287 662.592 240.454 662.634 238.289C662.381 238.289 662.129 238.289 661.877 238.289C661.624 238.289 661.372 238.289 661.12 238.289C658.617 238.289 656.041 237.997 653.391 237.414C650.741 236.811 648.481 235.863 646.609 234.572C644.758 233.344 643.255 231.74 642.098 229.762C640.941 227.784 640.363 225.337 640.363 222.422C640.363 219.507 641.173 216.935 642.792 214.707C644.411 212.479 646.577 210.71 649.29 209.398C651.225 208.461 653.328 207.815 655.599 207.461C657.892 207.086 660.657 206.899 663.896 206.899C664.484 206.899 665.063 206.899 665.631 206.899C666.219 206.899 666.85 206.899 667.523 206.899ZM662.697 223.515C662.697 222.016 662.686 220.142 662.665 217.893C662.665 215.644 662.644 213.302 662.602 210.866C662.476 210.866 662.339 210.866 662.192 210.866C662.045 210.866 661.908 210.866 661.782 210.866C659.826 210.866 658.112 210.991 656.64 211.24C655.189 211.49 653.654 211.959 652.035 212.646C649.89 213.562 648.249 214.905 647.114 216.675C645.978 218.445 645.41 220.444 645.41 222.672C645.41 224.963 645.967 226.92 647.082 228.544C648.218 230.168 649.732 231.428 651.625 232.323C652.907 232.927 654.39 233.416 656.072 233.791C657.776 234.166 659.574 234.353 661.467 234.353C661.698 234.353 661.908 234.353 662.098 234.353C662.287 234.353 662.466 234.353 662.634 234.353C662.634 234.104 662.644 232.948 662.665 230.887C662.686 228.804 662.697 226.347 662.697 223.515Z" fill="#FEFAFA"/>
<path d="M720.982 224.671H707.544V237.977H704.074V224.671H690.667V221.204H704.074V207.992H707.544V221.204H720.982V224.671Z" fill="#FEFAFA"/>
<path d="M768.858 221.829H746.051C746.072 224.036 746.545 226.066 747.47 227.919C748.395 229.752 749.815 231.272 751.729 232.479C752.948 233.25 754.336 233.833 755.893 234.229C757.449 234.603 759.321 234.791 761.508 234.791C762.706 234.791 763.8 234.759 764.788 234.697C765.798 234.635 766.418 234.593 766.65 234.572L766.082 238.726C765.913 238.747 765.356 238.778 764.41 238.82C763.463 238.882 762.349 238.914 761.066 238.914C757.701 238.914 754.768 238.487 752.265 237.633C749.783 236.758 747.743 235.561 746.145 234.041C744.778 232.771 743.611 231.147 742.644 229.169C741.697 227.191 741.224 224.994 741.224 222.578C741.224 220.205 741.582 218.06 742.297 216.144C743.012 214.229 744.084 212.448 745.514 210.803C746.755 209.387 748.29 208.294 750.12 207.524C751.971 206.753 753.884 206.368 755.861 206.368C757.817 206.368 759.552 206.66 761.066 207.243C762.58 207.826 763.895 208.711 765.009 209.897C766.25 211.23 767.196 212.875 767.848 214.832C768.5 216.769 768.837 219.101 768.858 221.829ZM763.968 218.331C763.632 215.749 762.738 213.729 761.287 212.271C759.857 210.793 757.964 210.054 755.609 210.054C753.253 210.054 751.287 210.803 749.71 212.302C748.133 213.781 747.039 215.79 746.429 218.331H763.968Z" fill="#FEFAFA"/>
<path d="M783.809 238.789H778.825C778.846 238.539 778.867 235.499 778.888 229.668C778.93 223.817 778.951 218.966 778.951 215.113C778.951 212.636 778.94 209.512 778.919 205.743C778.919 201.954 778.888 197.706 778.825 193H783.809C783.767 196.207 783.735 199.923 783.714 204.15C783.693 208.357 783.683 211.907 783.683 214.801C783.683 221.11 783.704 226.628 783.746 231.355C783.788 236.082 783.809 238.56 783.809 238.789Z" fill="#FEFAFA"/>
<path d="M821.599 221.829H798.792C798.813 224.036 799.286 226.066 800.211 227.919C801.136 229.752 802.556 231.272 804.47 232.479C805.689 233.25 807.077 233.833 808.634 234.229C810.19 234.603 812.062 234.791 814.249 234.791C815.447 234.791 816.541 234.759 817.529 234.697C818.539 234.635 819.159 234.593 819.391 234.572L818.823 238.726C818.654 238.747 818.097 238.778 817.151 238.82C816.204 238.882 815.09 238.914 813.807 238.914C810.442 238.914 807.508 238.487 805.006 237.633C802.524 236.758 800.484 235.561 798.886 234.041C797.519 232.771 796.352 231.147 795.385 229.169C794.438 227.191 793.965 224.994 793.965 222.578C793.965 220.205 794.323 218.06 795.038 216.144C795.753 214.229 796.825 212.448 798.255 210.803C799.496 209.387 801.031 208.294 802.861 207.524C804.711 206.753 806.625 206.368 808.602 206.368C810.558 206.368 812.293 206.66 813.807 207.243C815.321 207.826 816.636 208.711 817.75 209.897C818.991 211.23 819.937 212.875 820.589 214.832C821.241 216.769 821.578 219.101 821.599 221.829ZM816.709 218.331C816.373 215.749 815.479 213.729 814.028 212.271C812.598 210.793 810.705 210.054 808.35 210.054C805.994 210.054 804.028 210.803 802.451 212.302C800.874 213.781 799.78 215.79 799.17 218.331H816.709Z" fill="#FEFAFA"/>
<path d="M852.259 234.728L851.881 238.914C851.713 238.914 851.439 238.914 851.061 238.914C850.703 238.914 850.398 238.914 850.146 238.914C847.433 238.914 844.899 238.664 842.543 238.164C840.188 237.643 838.074 236.883 836.203 235.884C833.658 234.51 831.671 232.688 830.241 230.418C828.811 228.148 828.096 225.618 828.096 222.828C828.096 220.33 828.748 218.039 830.052 215.957C831.355 213.854 833.059 212.136 835.162 210.803C837.055 209.596 839.315 208.679 841.944 208.055C844.594 207.409 847.328 207.086 850.146 207.086C850.377 207.086 850.608 207.086 850.84 207.086C851.092 207.086 851.292 207.086 851.439 207.086L851.691 211.272C851.544 211.272 851.376 211.272 851.187 211.272C851.019 211.272 850.861 211.272 850.714 211.272C848.379 211.272 846.381 211.417 844.72 211.709C843.08 211.98 841.481 212.438 839.925 213.083C837.843 213.916 836.192 215.228 834.973 217.019C833.753 218.809 833.143 220.725 833.143 222.766C833.143 225.202 833.711 227.253 834.846 228.919C836.003 230.564 837.528 231.834 839.42 232.729C840.893 233.437 842.554 233.947 844.405 234.26C846.255 234.572 848.211 234.728 850.272 234.728C850.608 234.728 850.987 234.728 851.408 234.728C851.828 234.728 852.112 234.728 852.259 234.728Z" fill="#FEFAFA"/>
<path d="M876.989 234.916L876.422 238.882C876.274 238.903 875.906 238.924 875.318 238.945C874.75 238.966 874.256 238.976 873.835 238.976C869.524 238.976 866.264 238.091 864.056 236.321C861.848 234.53 860.744 231.792 860.744 228.107C860.744 225.795 860.754 223.318 860.775 220.673C860.817 218.029 860.838 214.749 860.838 210.834H855.539V207.18H861.122V199.778H865.696V207.18H876.989V210.834H865.696C865.696 211.272 865.675 212.573 865.633 214.739C865.612 216.904 865.602 218.508 865.602 219.549C865.602 220.423 865.602 221.496 865.602 222.766C865.602 224.036 865.602 225.546 865.602 227.295C865.602 230.002 866.338 231.959 867.81 233.167C869.282 234.353 871.553 234.947 874.624 234.947C875.002 234.947 875.454 234.947 875.98 234.947C876.506 234.926 876.842 234.916 876.989 234.916Z" fill="#FEFAFA"/>
<path d="M904.748 210.866C903.591 211.136 901.814 211.709 899.417 212.584C897.04 213.458 894.296 214.624 891.183 216.082C891.183 216.311 891.173 217.362 891.152 219.236C891.131 221.09 891.12 222.818 891.12 224.421C891.12 226.878 891.141 229.793 891.183 233.167C891.247 236.54 891.278 238.414 891.278 238.789H886.294C886.294 238.435 886.315 237.269 886.357 235.29C886.399 233.312 886.42 229.929 886.42 225.14C886.42 223.203 886.41 220.496 886.389 217.019C886.368 213.541 886.336 210.262 886.294 207.18H891.183V211.928L891.215 211.959C893.591 210.626 895.936 209.471 898.25 208.492C900.563 207.513 902.414 206.847 903.802 206.493L904.748 210.866Z" fill="#FEFAFA"/>
<path d="M918.059 201.121H912.507V195.749H918.059V201.121ZM917.775 238.789H912.791C912.812 238.455 912.833 236.404 912.854 232.636C912.896 228.867 912.917 225.754 912.917 223.297C912.917 221.152 912.906 218.799 912.885 216.238C912.885 213.656 912.854 210.637 912.791 207.18H917.775C917.733 210.179 917.691 212.99 917.649 215.613C917.628 218.216 917.617 220.538 917.617 222.578C917.617 227.43 917.638 231.324 917.68 234.26C917.743 237.196 917.775 238.705 917.775 238.789Z" fill="#FEFAFA"/>
<path d="M952 234.728L951.621 238.914C951.453 238.914 951.18 238.914 950.801 238.914C950.444 238.914 950.139 238.914 949.886 238.914C947.174 238.914 944.639 238.664 942.284 238.164C939.929 237.643 937.815 236.883 935.944 235.884C933.399 234.51 931.412 232.688 929.982 230.418C928.551 228.148 927.836 225.618 927.836 222.828C927.836 220.33 928.488 218.039 929.792 215.957C931.096 213.854 932.8 212.136 934.903 210.803C936.795 209.596 939.056 208.679 941.685 208.055C944.335 207.409 947.068 207.086 949.886 207.086C950.118 207.086 950.349 207.086 950.58 207.086C950.833 207.086 951.033 207.086 951.18 207.086L951.432 211.272C951.285 211.272 951.117 211.272 950.927 211.272C950.759 211.272 950.602 211.272 950.454 211.272C948.12 211.272 946.122 211.417 944.461 211.709C942.82 211.98 941.222 212.438 939.666 213.083C937.584 213.916 935.933 215.228 934.713 217.019C933.494 218.809 932.884 220.725 932.884 222.766C932.884 225.202 933.451 227.253 934.587 228.919C935.744 230.564 937.268 231.834 939.161 232.729C940.633 233.437 942.295 233.947 944.145 234.26C945.996 234.572 947.952 234.728 950.013 234.728C950.349 234.728 950.728 234.728 951.148 234.728C951.569 234.728 951.853 234.728 952 234.728Z" fill="#FEFAFA"/>
</svg>
