<svg width="19" height="21" viewBox="0 0 19 21" fill="none" xmlns="http://www.w3.org/2000/svg">
<path d="M14.7206 20.5621C13.92 20.5621 12.7953 20.2449 11.1112 19.2144C9.0633 17.9566 7.47927 16.7954 5.44244 14.5704C3.47861 12.4209 2.52294 11.0292 1.18543 8.36355C-0.32559 5.35378 -0.0680122 3.77613 0.219918 3.10185C0.562808 2.29595 1.06894 1.81394 1.72314 1.33552C2.09472 1.06888 2.48795 0.84031 2.89783 0.652708C2.93884 0.633392 2.97699 0.614974 3.01103 0.598353C3.21406 0.498177 3.52168 0.34679 3.91132 0.508509C4.17136 0.615423 4.40351 0.834193 4.76691 1.22726C5.51216 2.03226 6.53058 3.82509 6.90628 4.70556C7.15853 5.29898 7.32546 5.6907 7.32587 6.13003C7.32587 6.64439 7.08962 7.04105 6.80293 7.46915C6.7492 7.54956 6.69587 7.62638 6.64419 7.70095C6.33207 8.15017 6.26357 8.27999 6.30869 8.51179C6.40015 8.97763 7.08224 10.3644 8.2032 11.5894C9.32416 12.8144 10.5538 13.5143 10.9808 13.614C11.2014 13.6657 11.3224 13.5875 11.7457 13.2335C11.8064 13.1828 11.8688 13.1302 11.934 13.0777C12.3712 12.7214 12.7166 12.4694 13.1751 12.4694H13.1776C13.5767 12.4694 13.9183 12.659 14.4843 12.9716C15.2226 13.3795 16.9088 14.4806 17.6483 15.2977C18.008 15.6948 18.2085 15.9482 18.3066 16.2325C18.4542 16.6606 18.3152 16.9962 18.2245 17.2208C18.2094 17.2581 18.1926 17.299 18.1749 17.3443C18.0023 17.7924 17.7923 18.2222 17.5478 18.6282C17.1118 19.3425 16.6701 19.8954 15.9326 20.2714C15.5539 20.4676 15.1395 20.567 14.7206 20.5621Z" fill="#FEFAFA"/>
</svg>
