<svg width="299" height="56" viewBox="0 0 299 56" fill="none" xmlns="http://www.w3.org/2000/svg">
<path d="M11 30.3363H44.2701L50.5474 7L61.8467 47L71.8905 7L83.1898 47L93.2336 7L99.5109 30.3363H183" stroke="#FEFAFA" stroke-width="2"/>
<circle cx="6" cy="31" r="5" stroke="#FEFAFA" stroke-width="2"/>
<path d="M184.996 41H182.096C182.119 40.2969 182.137 38.75 182.148 36.3594C182.172 33.9688 182.184 31.0918 182.184 27.7285C182.184 26.3574 182.172 24.7695 182.148 22.9648C182.137 21.1602 182.119 19.3262 182.096 17.4629H184.996C184.973 19.2559 184.955 21.2832 184.943 23.5449C184.932 25.8066 184.926 27.7578 184.926 29.3984C184.926 32.7734 184.932 35.375 184.943 37.2031C184.967 39.0312 184.984 40.2969 184.996 41ZM200.236 39.3828L198.215 41.3164C195.414 38.5977 192.713 36.0605 190.111 33.7051C187.51 31.3496 186.021 30.002 185.646 29.6621V29.5918C186.373 28.8652 187.926 27.2656 190.305 24.793C192.695 22.3203 195.08 19.7891 197.459 17.1992L199.445 18.9746C197.43 20.9082 195.361 22.9707 193.24 25.1621C191.119 27.3418 189.783 28.7129 189.232 29.2754V29.3105C189.502 29.5684 190.656 30.6406 192.695 32.5273C194.746 34.4023 197.26 36.6875 200.236 39.3828ZM206.877 19.8008H203.783V16.7773H206.877V19.8008ZM206.718 41H203.941C203.953 40.8125 203.965 39.6582 203.976 37.5371C204 35.416 204.011 33.6641 204.011 32.2812C204.011 31.0742 204.006 29.75 203.994 28.3086C203.994 26.8555 203.976 25.1562 203.941 23.2109H206.718C206.695 24.8984 206.672 26.4805 206.648 27.957C206.636 29.4219 206.631 30.7285 206.631 31.877C206.631 34.6074 206.642 36.7988 206.666 38.4512C206.701 40.1035 206.718 40.9531 206.718 41ZM227.755 41H224.978C224.99 40.6719 225.001 39.5879 225.013 37.748C225.036 35.9082 225.048 34.7715 225.048 34.3379C225.048 33.7285 225.042 32.832 225.031 31.6484C225.031 30.4531 225.025 29.5801 225.013 29.0293C224.978 27.6816 224.72 26.7148 224.24 26.1289C223.759 25.543 222.927 25.25 221.744 25.25C221.029 25.25 220.144 25.4609 219.089 25.8828C218.035 26.3047 216.968 26.8438 215.89 27.5C215.89 27.6289 215.884 28.3262 215.872 29.5918C215.861 30.8574 215.855 32.0117 215.855 33.0547C215.855 34.4141 215.867 36.0547 215.89 37.9766C215.925 39.8984 215.943 40.9062 215.943 41H213.165C213.165 40.918 213.177 40.2031 213.201 38.8555C213.224 37.4961 213.236 35.4805 213.236 32.8086C213.236 31.5781 213.23 30.1367 213.218 28.4844C213.218 26.832 213.201 25.0742 213.165 23.2109H215.908L215.89 25.2324L215.908 25.2676C217.548 24.3301 218.913 23.6797 220.003 23.3164C221.105 22.9414 222.019 22.7539 222.745 22.7539C224.245 22.7539 225.447 23.2285 226.349 24.1777C227.263 25.1152 227.72 26.4043 227.72 28.0449C227.72 29.5215 227.708 30.7988 227.685 31.877C227.673 32.9434 227.667 33.8105 227.667 34.4785C227.667 35.5449 227.679 36.8809 227.702 38.4863C227.738 40.0801 227.755 40.918 227.755 41ZM247.614 31.4551H234.905C234.917 32.6973 235.181 33.8398 235.696 34.8828C236.212 35.9141 237.003 36.7695 238.069 37.4492C238.749 37.8828 239.522 38.2109 240.39 38.4336C241.257 38.6445 242.3 38.75 243.519 38.75C244.187 38.75 244.796 38.7324 245.347 38.6973C245.909 38.6621 246.255 38.6387 246.384 38.627L246.067 40.9648C245.974 40.9766 245.663 40.9941 245.136 41.0176C244.608 41.0527 243.987 41.0703 243.272 41.0703C241.397 41.0703 239.763 40.8301 238.368 40.3496C236.985 39.8574 235.849 39.1836 234.958 38.3281C234.196 37.6133 233.546 36.6992 233.007 35.5859C232.48 34.4727 232.216 33.2363 232.216 31.877C232.216 30.541 232.415 29.334 232.814 28.2559C233.212 27.1777 233.81 26.1758 234.606 25.25C235.298 24.4531 236.153 23.8379 237.173 23.4043C238.204 22.9707 239.271 22.7539 240.372 22.7539C241.462 22.7539 242.429 22.918 243.272 23.2461C244.116 23.5742 244.849 24.0723 245.47 24.7402C246.161 25.4902 246.689 26.416 247.052 27.5176C247.415 28.6074 247.603 29.9199 247.614 31.4551ZM244.89 29.4863C244.702 28.0332 244.204 26.8965 243.396 26.0762C242.599 25.2441 241.544 24.8281 240.231 24.8281C238.919 24.8281 237.823 25.25 236.944 26.0938C236.065 26.9258 235.456 28.0566 235.116 29.4863H244.89ZM261.743 38.8203L261.426 41.0527C261.344 41.0645 261.139 41.0762 260.811 41.0879C260.495 41.0996 260.219 41.1055 259.985 41.1055C257.583 41.1055 255.766 40.6074 254.536 39.6113C253.305 38.6035 252.69 37.0625 252.69 34.9883C252.69 33.6875 252.696 32.293 252.708 30.8047C252.731 29.3164 252.743 27.4707 252.743 25.2676H249.79V23.2109H252.901V19.0449H255.45V23.2109H261.743V25.2676H255.45C255.45 25.5137 255.438 26.2461 255.415 27.4648C255.403 28.6836 255.397 29.5859 255.397 30.1719C255.397 30.6641 255.397 31.2676 255.397 31.9824C255.397 32.6973 255.397 33.5469 255.397 34.5312C255.397 36.0547 255.807 37.1562 256.628 37.8359C257.448 38.5039 258.714 38.8379 260.425 38.8379C260.635 38.8379 260.887 38.8379 261.18 38.8379C261.473 38.8262 261.661 38.8203 261.743 38.8203ZM269.157 19.8008H266.063V16.7773H269.157V19.8008ZM268.998 41H266.221C266.233 40.8125 266.245 39.6582 266.256 37.5371C266.28 35.416 266.291 33.6641 266.291 32.2812C266.291 31.0742 266.286 29.75 266.274 28.3086C266.274 26.8555 266.256 25.1562 266.221 23.2109H268.998C268.975 24.8984 268.952 26.4805 268.928 27.957C268.916 29.4219 268.911 30.7285 268.911 31.877C268.911 34.6074 268.922 36.7988 268.946 38.4512C268.981 40.1035 268.998 40.9531 268.998 41ZM287.17 38.7148L286.959 41.0703C286.865 41.0703 286.713 41.0703 286.502 41.0703C286.303 41.0703 286.133 41.0703 285.992 41.0703C284.481 41.0703 283.068 40.9297 281.756 40.6484C280.443 40.3555 279.266 39.9277 278.223 39.3652C276.805 38.5918 275.697 37.5664 274.9 36.2891C274.104 35.0117 273.705 33.5879 273.705 32.0176C273.705 30.6113 274.068 29.3223 274.795 28.1504C275.522 26.9668 276.471 26 277.643 25.25C278.697 24.5703 279.957 24.0547 281.422 23.7031C282.899 23.3398 284.422 23.1582 285.992 23.1582C286.121 23.1582 286.25 23.1582 286.379 23.1582C286.52 23.1582 286.631 23.1582 286.713 23.1582L286.854 25.5137C286.772 25.5137 286.678 25.5137 286.572 25.5137C286.479 25.5137 286.391 25.5137 286.309 25.5137C285.008 25.5137 283.895 25.5957 282.969 25.7598C282.055 25.9121 281.164 26.1699 280.297 26.5332C279.137 27.002 278.217 27.7402 277.537 28.748C276.857 29.7559 276.518 30.834 276.518 31.9824C276.518 33.3535 276.834 34.5078 277.467 35.4453C278.111 36.3711 278.961 37.0859 280.016 37.5898C280.836 37.9883 281.762 38.2754 282.793 38.4512C283.824 38.627 284.914 38.7148 286.063 38.7148C286.25 38.7148 286.461 38.7148 286.695 38.7148C286.93 38.7148 287.088 38.7148 287.17 38.7148Z" fill="#FEFAFA"/>
</svg>
